# xmcd
#
# Track frame offsets: 
#        150
#        15677
#        28703
#        44562
#        61290
#        81645
#        99185
#        117295
#        133442
#        149356
#        164988
#        184022
#        201399
#        219963
#        236803
#        253877
#        271197
#        290497
#        321581
#
# Disc length: 4749 seconds
#
# Revision: 0
# Processed by: cddbd v1.5.2PL0 Copyright (c) Steve Scherf et al.
# Submitted via: ExactAudioCopy v1.3
#
DISCID=35128b13
DTITLE=Lonestar - From There to Here- Greatest Hits
DYEAR=2003
DGENRE=Country
TTITLE0=Tequila Talkin'
TTITLE1=No News
TTITLE2=Runnin' Away With My Heart
TTITLE3=Come Cryin' To Me
TTITLE4=You Walked In
TTITLE5=Everything's Changed
TTITLE6=Amazed
TTITLE7=Smile
TTITLE8=What About Now?
TTITLE9=Tell Her
TTITLE10=I'm Already There
TTITLE11=With Me
TTITLE12=Not A Day Goes By
TTITLE13=My Front Porch Looking In
TTITLE14=I Pray
TTITLE15=Walking In Memphis
TTITLE16=Love Can Change Your Mind
TTITLE17=Gimme All Your Lovin'
TTITLE18=DATA
EXTD=
EXTT0=
EXTT1=
EXTT2=
EXTT3=
EXTT4=
EXTT5=
EXTT6=
EXTT7=
EXTT8=
EXTT9=
EXTT10=
EXTT11=
EXTT12=
EXTT13=
EXTT14=
EXTT15=
EXTT16=
EXTT17=
EXTT18=
PLAYORDER=
